<svg width="192" height="42" viewBox="0 0 192 42" fill="none" xmlns="http://www.w3.org/2000/svg">
<mask id="mask0_1416_188" style="mask-type:luminance" maskUnits="userSpaceOnUse" x="0" y="0" width="192" height="42">
<path d="M191.449 0.185547H0.549805V41.8139H191.449V0.185547Z" fill="white"/>
</mask>
<g mask="url(#mask0_1416_188)">
<path d="M37.9388 15.0645H37.2942L31.3373 27.5528L31.2744 27.6879H32.5243L34.4706 23.6425H39.6225L41.4824 27.6335L41.5091 27.6879H43.8217L37.9671 15.1188L37.9388 15.0645ZM39.1524 22.6553H34.9234L37.0694 18.166L39.1524 22.6553Z" fill="#0F0F0F"/>
<path d="M51.5947 22.2018C51.2479 21.892 50.8696 21.6184 50.4659 21.3853C50.0618 21.1494 49.6311 20.901 49.1846 20.6759C48.9252 20.5455 48.6689 20.4089 48.4158 20.2754C48.2444 20.1838 48.0746 20.0953 47.9064 20.0084C47.524 19.808 47.1562 19.5813 46.8059 19.3301C46.517 19.1239 46.2596 18.8776 46.0419 18.5989C45.8576 18.3626 45.7576 18.0728 45.7573 17.7746C45.7592 17.5607 45.8052 17.3495 45.8925 17.1537C45.9861 16.9399 46.1255 16.7487 46.3013 16.5933C46.5044 16.4142 46.7417 16.277 46.9993 16.1897C47.3151 16.0773 47.6495 16.0247 47.985 16.0345C48.3761 16.0275 48.7655 16.0874 49.1358 16.2115C49.4613 16.3195 49.7636 16.4863 50.0273 16.7035C50.2916 16.9244 50.5173 17.1866 50.6954 17.4797C50.8921 17.7955 51.0504 18.1332 51.1671 18.4856L51.2017 18.5881L52.4374 18.023L52.4122 17.9438C52.2701 17.508 52.0674 17.0937 51.8101 16.7129C51.5692 16.3563 51.2619 16.0481 50.9045 15.8048C50.5264 15.5471 50.1055 15.3569 49.6609 15.2428C49.1437 15.1101 48.6106 15.0474 48.0762 15.0565C47.4858 15.047 46.8976 15.1314 46.3343 15.3065C45.8609 15.4582 45.4224 15.7003 45.0435 16.019C44.7001 16.3119 44.4263 16.676 44.2418 17.0854C44.0574 17.5051 43.9642 17.9583 43.9682 18.4157C43.9609 18.8614 44.0639 19.3021 44.2685 19.6995C44.4711 20.0731 44.7369 20.4096 45.0546 20.6945C45.3929 20.9969 45.7616 21.2642 46.1551 21.4924C46.5811 21.7408 46.9867 21.9581 47.3971 22.1677C47.8074 22.3772 48.2319 22.593 48.639 22.8072C49.0152 23.0027 49.3744 23.2285 49.7128 23.4825C50.0002 23.6989 50.2489 23.9612 50.4486 24.2587C50.6319 24.5352 50.7272 24.8596 50.7221 25.19C50.7291 25.4622 50.6595 25.7309 50.5209 25.9662C50.3835 26.1912 50.2004 26.3857 49.9832 26.5374C49.7502 26.6955 49.4927 26.815 49.2207 26.8914C48.9395 26.9705 48.6485 27.0113 48.3561 27.0125V27C47.9822 27.003 47.6105 26.9453 47.2556 26.8293C46.9166 26.7195 46.598 26.5559 46.3123 26.345C46.0253 26.1276 45.7763 25.8654 45.5749 25.5688C45.3545 25.2509 45.1843 24.9018 45.0703 24.5334L45.0388 24.4356L43.7402 24.9572L43.7701 25.0426C43.9242 25.4804 44.1396 25.8947 44.41 26.2736C44.6665 26.6311 44.9828 26.9429 45.3454 27.1956C45.7295 27.4549 46.1545 27.6496 46.6031 27.7715C47.1305 27.9032 47.6722 27.9704 48.2161 27.9718C48.8723 27.9715 49.5248 27.8763 50.153 27.6893C50.6711 27.527 51.1518 27.266 51.568 26.9209C51.9373 26.6065 52.2315 26.2153 52.4295 25.7753C52.6209 25.3382 52.7188 24.8668 52.7172 24.3906C52.7219 23.9677 52.6135 23.5511 52.4028 23.1829C52.1899 22.8142 51.9169 22.4827 51.5947 22.2018Z" fill="#0F0F0F"/>
<path d="M53.4316 27.6827H62.1854V26.7063H55.694V21.447H60.0347V20.4737H55.694V16.3166H62.1854V15.3418H53.4316V27.6827Z" fill="#0F0F0F"/>
<path d="M69.5684 15.0645H68.9395L62.9795 27.5528L62.915 27.6879H64.1728L66.1096 23.6425H71.2616L73.123 27.6335L73.1482 27.6879H75.4561L69.5998 15.1141L69.5684 15.0645ZM70.7821 22.6553H66.553L68.699 18.166L70.7821 22.6553Z" fill="#0F0F0F"/>
<path d="M84.8489 24.1698L76.8624 15.3728L76.8341 15.3418H75.5371L75.5418 27.692H76.6659V18.1856L85.2986 27.9497L85.3269 27.9823H85.951V15.3418H84.8489V24.1698Z" fill="#0F0F0F"/>
<path d="M99.9285 22.1989C99.5792 21.8914 99.2007 21.6179 98.7981 21.3824C98.3957 21.1464 97.9602 20.8965 97.5168 20.673C97.2637 20.5457 97.0137 20.4122 96.7669 20.2818L96.2402 20.0055C95.8578 19.805 95.4901 19.5783 95.1397 19.3271C94.8508 19.1215 94.5935 18.8758 94.3757 18.5975C94.193 18.3605 94.0936 18.0711 94.0927 17.7733C94.0944 17.5598 94.1387 17.3488 94.2232 17.1523C94.3193 16.9409 94.4584 16.7512 94.6319 16.595C94.8344 16.4166 95.0705 16.2795 95.3268 16.1914C95.6451 16.0823 95.9804 16.0297 96.3173 16.0362C96.7077 16.0298 97.0963 16.0892 97.4665 16.2116C97.7925 16.3196 98.0953 16.4865 98.3595 16.7037C98.6233 16.9242 98.848 17.1865 99.0245 17.4799C99.222 17.7953 99.3804 18.133 99.4962 18.4858L99.5292 18.5882L100.766 18.0232L100.74 17.944C100.599 17.5077 100.397 17.0933 100.139 16.713C99.8977 16.3569 99.5905 16.0488 99.2336 15.8049C98.8576 15.5476 98.4389 15.3574 97.9963 15.243C97.4787 15.1124 96.9458 15.0498 96.4116 15.0567C95.8205 15.0452 95.2315 15.1296 94.6681 15.3066C94.1939 15.4545 93.7538 15.6929 93.3726 16.0083C93.0293 16.3026 92.7547 16.667 92.5677 17.0763C92.3931 17.4987 92.308 17.952 92.3177 18.4081C92.3102 18.854 92.4138 19.2949 92.6196 19.6919C92.8227 20.0651 93.0885 20.4016 93.4057 20.6869C93.7434 20.99 94.1122 21.2574 94.5062 21.4848C94.9322 21.7332 95.3394 21.9505 95.7482 22.1601C96.1569 22.3697 96.583 22.5854 96.9902 22.7996C97.3648 22.9952 97.7224 23.221 98.0592 23.4749C98.3475 23.6908 98.5968 23.9532 98.7966 24.2511C98.9814 24.5271 99.0778 24.8516 99.0733 25.1824C99.0789 25.455 99.0076 25.7238 98.8673 25.9586C98.7316 26.1835 98.5495 26.3776 98.3328 26.5283C98.1001 26.6869 97.8424 26.8065 97.5703 26.8822C97.2829 26.9629 96.9855 27.0037 96.6867 27.0033V26.9878C96.3134 26.9849 95.9425 26.9274 95.5862 26.817C95.2467 26.7086 94.9278 26.5449 94.6429 26.3327C94.3559 26.115 94.1064 25.8529 93.904 25.5566C93.6839 25.2391 93.5138 24.8905 93.3994 24.5227L93.3695 24.4234L92.0693 24.9449L92.0992 25.0303C92.2532 25.4684 92.4691 25.8829 92.7406 26.2613C92.9957 26.6195 93.3117 26.9315 93.6745 27.1834C94.0585 27.4429 94.4835 27.6376 94.9322 27.7593C95.4276 27.8943 95.9386 27.9658 96.4525 27.9719H96.6459C97.2697 27.9719 97.8897 27.876 98.4837 27.6879C99.0015 27.525 99.4821 27.264 99.8986 26.9195C100.269 26.6061 100.563 26.2146 100.759 25.7739C100.951 25.3371 101.05 24.8656 101.048 24.3892C101.052 23.9663 100.944 23.5498 100.733 23.1815C100.519 22.814 100.248 22.4824 99.9285 22.1989Z" fill="#0F0F0F"/>
<path d="M103.062 27.6827H111.819V26.7063H105.328V21.447H109.667V20.4737H105.328V16.3166H111.819V15.3418H103.062V27.6827Z" fill="#0F0F0F"/>
<path d="M115.89 19.2801C116.125 18.6457 116.488 18.0648 116.956 17.5725C117.402 17.1085 117.942 16.7425 118.541 16.4983C119.153 16.2499 119.809 16.1223 120.471 16.1227C120.504 16.1227 120.531 16.1227 120.559 16.1227C121.306 16.127 122.033 16.3626 122.638 16.7964C123.365 17.3702 123.947 18.103 124.339 18.937L124.386 19.0363L125.452 18.3316L125.403 18.254C125.133 17.8303 124.825 17.4318 124.482 17.0634C124.115 16.6749 123.7 16.3328 123.248 16.045C122.769 15.7411 122.251 15.5035 121.707 15.3387C121.132 15.1679 120.535 15.0811 119.935 15.0811H119.786C119.15 15.0813 118.516 15.1595 117.899 15.3139C117.307 15.4659 116.736 15.6907 116.2 15.9829C115.692 16.2615 115.225 16.6078 114.813 17.0121C113.89 17.9063 113.26 19.0534 113.004 20.3051C112.748 21.5568 112.878 22.8555 113.378 24.0332C113.701 24.8022 114.177 25.4991 114.779 26.0823C115.404 26.6859 116.145 27.1608 116.958 27.4794C117.823 27.8183 118.746 27.9922 119.677 27.9916H119.86C120.49 27.9916 121.116 27.9017 121.72 27.7246C122.27 27.5606 122.795 27.324 123.281 27.0214C123.731 26.7385 124.14 26.397 124.498 26.0062C124.835 25.6366 125.14 25.2382 125.406 24.8156L125.458 24.7364L124.424 24.0767L124.375 24.1698C124.189 24.5229 123.968 24.8568 123.715 25.1664C123.445 25.4929 123.14 25.7896 122.806 26.0513C122.471 26.3128 122.1 26.527 121.705 26.6877C121.322 26.8459 120.91 26.9271 120.495 26.9268H120.432C119.773 26.9271 119.121 26.8032 118.509 26.562C117.916 26.3246 117.38 25.9653 116.937 25.5079C116.473 25.0245 116.115 24.451 115.887 23.8237C115.621 23.0997 115.491 22.3336 115.505 21.5635C115.487 20.7853 115.618 20.0107 115.89 19.2801Z" fill="#0F0F0F"/>
<path d="M136.772 23.3284C136.777 23.816 136.689 24.3001 136.511 24.755C136.35 25.1905 136.098 25.588 135.772 25.9224C135.443 26.2628 135.046 26.5324 134.606 26.714C133.61 27.1083 132.499 27.1083 131.504 26.714C131.066 26.5324 130.671 26.2651 130.341 25.9281C130.011 25.5911 129.753 25.1915 129.584 24.7535C129.406 24.2993 129.316 23.8157 129.32 23.3284V15.3418H127.059L127.047 23.2803C127.045 23.9046 127.162 24.5236 127.394 25.1043C127.623 25.6711 127.973 26.1825 128.419 26.6038C128.903 27.0491 129.474 27.3924 130.097 27.6128C130.831 27.87 131.607 27.9936 132.386 27.9776H132.553C133.339 27.9778 134.12 27.8525 134.865 27.6066C135.501 27.3934 136.085 27.0513 136.579 26.6023C137.021 26.1897 137.359 25.6803 137.565 25.1152C137.775 24.5403 137.881 23.9335 137.879 23.3222V15.3418H136.779L136.772 23.3284Z" fill="#0F0F0F"/>
<path d="M147.148 21.3417C147.507 21.1555 147.835 20.9174 148.123 20.6354C148.391 20.3676 148.605 20.0514 148.752 19.704C148.903 19.3552 148.979 18.9795 148.975 18.6003C148.98 18.1472 148.881 17.6988 148.686 17.2886C148.485 16.8787 148.187 16.5225 147.818 16.2501C147.388 15.9381 146.902 15.709 146.386 15.5748C145.743 15.4029 145.079 15.3218 144.413 15.3342H140.055V27.6829H142.325V21.9766H143.633L147.878 27.6581L147.906 27.6953H150.533L146.035 21.7639C146.421 21.666 146.795 21.5243 147.148 21.3417ZM146.323 19.7118C146.167 20.0144 145.946 20.2794 145.675 20.4879C145.379 20.7153 145.043 20.8859 144.683 20.9909C144.276 21.1179 143.852 21.1792 143.425 21.1725H142.325V16.2889H144.054C144.398 16.287 144.74 16.3475 145.062 16.4674C145.357 16.5786 145.627 16.7446 145.859 16.9564C146.083 17.1663 146.259 17.4208 146.376 17.7031C146.502 18.0097 146.564 18.338 146.559 18.6686C146.561 19.0295 146.481 19.3863 146.323 19.7118Z" fill="#0F0F0F"/>
<path d="M153.589 15.3418H151.327V27.6904H153.589V15.3418Z" fill="#0F0F0F"/>
<path d="M154.482 16.3166H158.939V27.6904H161.205V16.3166H165.664V15.3418H154.482V16.3166Z" fill="#0F0F0F"/>
<path d="M169.378 15.3418H167.112V27.6904H169.378V15.3418Z" fill="#0F0F0F"/>
<path d="M171.184 27.6827H179.937V26.7063H173.446V21.447H177.79V20.4737H173.446V16.3166H179.937V15.3418H171.184V27.6827Z" fill="#0F0F0F"/>
<path d="M189.121 23.1789C188.906 22.813 188.634 22.4829 188.315 22.201C187.968 21.8915 187.591 21.6179 187.188 21.3844C186.736 21.1221 186.329 20.8877 185.905 20.675C185.645 20.5446 185.391 20.4096 185.139 20.2745C184.968 20.1845 184.8 20.0945 184.63 20.0075C184.247 19.8071 183.88 19.5804 183.529 19.3292C183.24 19.123 182.983 18.8767 182.765 18.598C182.581 18.3616 182.481 18.0719 182.481 17.7738C182.483 17.56 182.528 17.3489 182.614 17.1528C182.709 16.9407 182.849 16.7508 183.023 16.5956C183.225 16.4171 183.462 16.28 183.718 16.192C184.021 16.0878 184.34 16.0353 184.661 16.0367H184.76C185.134 16.0367 185.506 16.0965 185.861 16.2137C186.185 16.3223 186.487 16.4891 186.751 16.7058C187.015 16.9266 187.241 17.1888 187.419 17.4819C187.614 17.7984 187.772 18.1359 187.89 18.4878L187.923 18.5903L189.161 18.0252L189.134 17.9461C188.995 17.5096 188.793 17.095 188.535 16.7151C188.293 16.3596 187.987 16.0517 187.631 15.807C187.249 15.5477 186.825 15.3564 186.376 15.2419C185.887 15.1182 185.385 15.0556 184.88 15.0557H184.702C184.141 15.0555 183.583 15.1398 183.048 15.3056C182.574 15.4545 182.134 15.6928 181.753 16.0072C181.41 16.3003 181.137 16.6644 180.952 17.0737C180.768 17.4932 180.675 17.9465 180.679 18.404C180.671 18.8496 180.775 19.2903 180.982 19.6862C181.183 20.0617 181.449 20.3992 181.768 20.6828C182.107 20.9853 182.475 21.2527 182.869 21.4807C183.301 21.7337 183.707 21.9541 184.109 22.1559C184.512 22.3577 184.944 22.5813 185.35 22.7955C185.726 22.9904 186.085 23.2163 186.424 23.4708C186.711 23.6878 186.96 23.9501 187.161 24.2469C187.344 24.5236 187.438 24.848 187.433 25.1783C187.441 25.4506 187.371 25.7196 187.232 25.9545C187.094 26.1787 186.912 26.373 186.696 26.5257C186.462 26.6847 186.203 26.8043 185.93 26.8796C185.651 26.9582 185.362 26.9989 185.072 27.0007V26.9883C184.698 26.9888 184.326 26.9312 183.971 26.8175C183.631 26.7098 183.312 26.5461 183.028 26.3332C182.741 26.115 182.492 25.853 182.289 25.5571C182.069 25.2396 181.9 24.891 181.787 24.5232L181.757 24.4239L180.454 24.9454L180.484 25.0308C180.64 25.4685 180.856 25.8827 181.127 26.2618C181.386 26.62 181.705 26.9319 182.07 27.1839C182.454 27.4431 182.879 27.6377 183.328 27.7598C184.5 28.049 185.729 28.0195 186.886 27.6744C187.404 27.513 187.885 27.2519 188.301 26.906C188.671 26.5925 188.965 26.201 189.162 25.7604C189.353 25.3233 189.451 24.8518 189.448 24.3758C189.448 23.9553 189.336 23.5423 189.121 23.1789Z" fill="#0F0F0F"/>
<path d="M25.2467 15.4287V27.6221H12.8975C12.8975 24.3882 14.1985 21.2868 16.5145 19.0001C18.8304 16.7134 21.9715 15.4287 25.2467 15.4287Z" fill="#ED3139"/>
<path d="M0.549805 39.8112V27.6162H12.9006C12.9006 30.8505 11.5994 33.9524 9.28314 36.2394C6.96691 38.5264 3.82544 39.8112 0.549805 39.8112Z" fill="#ED3139"/>
<path d="M25.2467 0.185547V12.3805H12.8975C12.8973 10.7791 13.2165 9.19337 13.837 7.71382C14.4576 6.23427 15.3672 4.88989 16.5139 3.75747C17.6607 2.62504 19.0221 1.72674 20.5205 1.11386C22.0189 0.50099 23.6248 0.185547 25.2467 0.185547Z" fill="#ED3139"/>
<path d="M0.549805 24.5665V12.373H12.9006C12.9002 15.6071 11.5988 18.7085 9.28258 20.9952C6.9664 23.2819 3.82517 24.5665 0.549805 24.5665Z" fill="#ED3139"/>
<path d="M35.201 39.9642C34.811 40.1227 34.3914 40.1973 33.97 40.1831C32.6572 40.1831 31.6699 39.3635 31.6699 37.8546C31.6699 36.4156 32.6572 35.4392 34.102 35.4392C34.4798 35.4254 34.8558 35.4954 35.2025 35.6441L35.0563 36.1284C34.76 35.9968 34.4379 35.9316 34.113 35.9375C33.022 35.9375 32.2956 36.6267 32.2956 37.8344C32.2956 38.9599 32.9528 39.6832 34.0863 39.6832C34.4228 39.6885 34.7566 39.6235 35.0658 39.4923L35.201 39.9642Z" fill="#0F0F0F"/>
<path d="M40.897 37.7676C40.897 39.3494 39.9223 40.1892 38.7337 40.1892C37.5043 40.1892 36.6396 39.2485 36.6396 37.8608C36.6396 36.4016 37.5594 35.4454 38.8029 35.4454C40.0732 35.4407 40.897 36.4032 40.897 37.7676ZM37.2811 37.8422C37.2811 38.8263 37.8203 39.7049 38.7668 39.7049C39.7132 39.7049 40.2587 38.8372 40.2587 37.794C40.2587 36.8782 39.7745 35.9313 38.7731 35.9313C37.7716 35.9313 37.2827 36.8331 37.2827 37.8422H37.2811ZM38.9947 34.4736L39.7195 35.2498H39.2085L38.7668 34.7841H38.751L38.3156 35.2498H37.8188L38.5294 34.4736H38.9947Z" fill="#0F0F0F"/>
<path d="M42.7852 40.1136V35.5156H43.4407L44.9343 37.8441C45.245 38.324 45.5239 38.8234 45.7691 39.339H45.7832C45.7282 38.718 45.7141 38.1654 45.7141 37.4483V35.5156H46.28V40.1136H45.67L44.1922 37.7851C43.8705 37.2914 43.5796 36.7787 43.3213 36.2499H43.3008C43.3338 36.8304 43.348 37.3831 43.348 38.1468V40.1136H42.7852Z" fill="#0F0F0F"/>
<path d="M51.9785 39.9163C51.5196 40.0799 51.0358 40.1655 50.5479 40.1693C49.8435 40.1693 49.2634 39.9924 48.8075 39.5624C48.4066 39.1805 48.1582 38.5658 48.1582 37.8548C48.1582 36.4841 49.1188 35.4813 50.6736 35.4813C51.0715 35.4716 51.4672 35.5435 51.8355 35.6925L51.6892 36.1768C51.3647 36.0376 51.0132 35.9703 50.6595 35.9796C49.526 35.9796 48.7871 36.6751 48.7871 37.8284C48.7871 38.9818 49.4977 39.6912 50.584 39.6912C50.857 39.7059 51.1301 39.6641 51.3858 39.5686V38.1979H50.4425V37.7198H51.9754L51.9785 39.9163Z" fill="#0F0F0F"/>
<path d="M57.4989 36.0201H56.084V35.5156H59.5317V36.0201H58.1089V40.1136H57.5005L57.4989 36.0201Z" fill="#0F0F0F"/>
<path d="M62.1952 40.1058V38.1546L60.7236 35.5156H61.4075L62.0631 36.7839C62.2423 37.1316 62.3775 37.4048 62.5253 37.7323H62.5395C62.6715 37.4327 62.8303 37.1316 63.0111 36.7839L63.6824 35.5156H64.3647L62.8052 38.1546V40.1058H62.1952Z" fill="#0F0F0F"/>
<path d="M71.8328 39.9555C71.4429 40.114 71.0232 40.1886 70.6018 40.1744C69.2891 40.1744 68.3018 39.3548 68.3018 37.8459C68.3018 36.4069 69.2891 35.4305 70.7339 35.4305C71.1116 35.4163 71.4878 35.4863 71.8344 35.6354L71.6897 36.1197C71.3934 35.9881 71.0713 35.9229 70.7465 35.9288C69.6554 35.9288 68.929 36.618 68.929 37.8257C68.929 38.9512 69.5862 39.6745 70.7197 39.6745C71.0562 39.6798 71.39 39.6148 71.6992 39.4836L71.8328 39.9555Z" fill="#0F0F0F"/>
<path d="M77.5273 37.7625C77.5273 39.3443 76.5526 40.1841 75.364 40.1841C74.1346 40.1841 73.2715 39.2434 73.2715 37.8557C73.2715 36.3965 74.1896 35.4403 75.4332 35.4403C76.7051 35.4356 77.5273 36.398 77.5273 37.7625ZM73.9113 37.837C73.9113 38.8212 74.4506 39.6998 75.397 39.6998C76.3435 39.6998 76.8874 38.8321 76.8874 37.7889C76.8874 36.873 76.4048 35.9261 75.4033 35.9261C74.4019 35.9261 73.9145 36.828 73.9145 37.837H73.9113ZM75.6549 34.4902L76.3042 35.2664H75.8215L75.4411 34.7883H75.4269L75.048 35.2664H74.5764L75.2178 34.4902H75.6549ZM76.1862 34.8876C76.2979 34.6067 76.5463 34.5399 76.5463 34.321C76.5465 34.2908 76.5405 34.2607 76.5286 34.2328C76.5168 34.2049 76.4993 34.1796 76.4772 34.1586C76.4552 34.1375 76.429 34.1211 76.4004 34.1104C76.3717 34.0996 76.3411 34.0947 76.3104 34.096C76.1658 34.096 76.0495 34.2326 75.9724 34.3474L75.7523 34.2186C75.8044 34.0891 75.8949 33.978 76.0118 33.8999C76.1287 33.8219 76.2668 33.7803 76.4079 33.7808C76.4759 33.7756 76.5443 33.7839 76.6089 33.8052C76.6736 33.8266 76.7332 33.8606 76.7843 33.9052C76.8353 33.9499 76.8767 34.0042 76.9061 34.0649C76.9354 34.1257 76.9521 34.1917 76.955 34.259C76.955 34.5865 76.6579 34.6548 76.4834 34.9684L76.1862 34.8876Z" fill="#0F0F0F"/>
<path d="M82.0254 35.5691C82.4069 35.5079 82.7929 35.4783 83.1794 35.4806C83.7736 35.4806 84.2091 35.6172 84.4858 35.8625C84.6201 35.984 84.7261 36.1328 84.7964 36.2987C84.8667 36.4646 84.8996 36.6436 84.893 36.8233C84.902 37.0028 84.8749 37.1822 84.8131 37.3511C84.7513 37.5201 84.656 37.6752 84.533 37.8075C84.2185 38.1413 83.6966 38.312 83.1102 38.312C82.9477 38.3169 82.7851 38.3028 82.626 38.2701V40.1127H82.0254V35.5691ZM82.626 37.7858C82.7893 37.8229 82.9568 37.839 83.1243 37.8339C83.8491 37.8339 84.2909 37.4862 84.2909 36.8513C84.2909 36.2443 83.8569 35.9509 83.1903 35.9509C82.9999 35.9455 82.8095 35.9616 82.6228 35.9991L82.626 37.7858Z" fill="#0F0F0F"/>
<path d="M87.4092 35.5156V37.4436H89.662V35.5156H90.2705V40.1136H89.662V37.9574H87.4092V40.1136H86.8086V35.5156H87.4092Z" fill="#0F0F0F"/>
<path d="M93.1736 38.6644L92.6894 40.1111H92.0605L93.6437 35.5132H94.3685L95.9579 40.1111H95.3165L94.8181 38.6644H93.1736ZM94.2223 34.4887L94.8794 35.2648H94.3952L94.0084 34.7867H93.9959L93.6185 35.2679H93.1469L93.7883 34.4918L94.2223 34.4887ZM94.6939 38.2002L94.238 36.8761C94.1342 36.5781 94.0635 36.3033 93.9959 36.0379H93.9817C93.9125 36.3111 93.8371 36.5905 93.7475 36.8715L93.2915 38.2002H94.6939ZM94.8385 34.1006L95.3479 34.8178H94.9737L94.2144 34.1006H94.8385Z" fill="#0F0F0F"/>
<path d="M97.7549 40.1048V35.5068H98.4105L99.904 37.8353C100.214 38.3156 100.493 38.8149 100.739 39.3302H100.753C100.698 38.7093 100.684 38.1566 100.684 37.4395V35.5068H101.25V40.1048H100.643L99.1635 37.7763C98.8429 37.2822 98.5525 36.7696 98.2941 36.2411H98.2721C98.3067 36.8216 98.3209 37.3743 98.3209 38.138V40.1048H97.7549Z" fill="#0F0F0F"/>
<path d="M109.237 39.9555C108.847 40.114 108.428 40.1886 108.006 40.1744C106.693 40.1744 105.706 39.3548 105.706 37.8459C105.706 36.4069 106.693 35.4305 108.138 35.4305C108.516 35.4163 108.892 35.4863 109.239 35.6354L109.094 36.1197C108.798 35.9881 108.476 35.9229 108.151 35.9288C107.06 35.9288 106.335 36.618 106.335 37.8257C106.335 38.9512 106.991 39.6745 108.124 39.6745C108.461 39.6798 108.795 39.6148 109.105 39.4836L109.237 39.9555Z" fill="#0F0F0F"/>
<path d="M111.721 35.5156V37.4436H113.973V35.5156H114.581V40.1136H113.973V37.9574H111.721V40.1136H111.119V35.5156H111.721Z" fill="#0F0F0F"/>
<path d="M120.766 34.7753C120.842 34.9352 120.882 35.1094 120.884 35.286C120.884 35.6213 120.675 35.8526 120.255 35.8666H120.151V38.1873C120.151 39.5999 119.398 40.1789 118.389 40.1789C117.436 40.1789 116.718 39.6403 116.718 38.2152V35.5127H117.326V38.2354C117.326 39.2646 117.787 39.7023 118.409 39.7023C119.101 39.7023 119.543 39.2506 119.543 38.2354V35.5127H120.088C120.324 35.5127 120.403 35.4304 120.403 35.2534C120.399 35.1144 120.361 34.9785 120.291 34.8576L120.766 34.7753ZM119.474 34.4648L118.596 35.2674H118.098L118.741 34.4695L119.474 34.4648Z" fill="#0F0F0F"/>
<path d="M122.517 40.1136V35.5156H123.178L124.67 37.8441C124.982 38.3237 125.261 38.8231 125.505 39.339H125.519C125.464 38.718 125.45 38.1654 125.45 37.4483V35.5156H126.008V40.1136H125.4L123.922 37.7851C123.6 37.2914 123.309 36.7787 123.051 36.2499H123.031C123.064 36.8304 123.078 37.3831 123.078 38.1468V40.1136H122.517Z" fill="#0F0F0F"/>
<path d="M131.712 39.9075C131.253 40.071 130.769 40.1565 130.281 40.1605C129.577 40.1605 128.995 39.9836 128.539 39.5536C128.138 39.1717 127.89 38.557 127.89 37.846C127.89 36.4754 128.85 35.4726 130.405 35.4726C130.803 35.4628 131.199 35.5347 131.567 35.6837L131.422 36.168C131.098 36.0292 130.746 35.9619 130.393 35.9709C129.259 35.9709 128.519 36.6663 128.519 37.8197C128.519 38.973 129.231 39.6824 130.315 39.6824C130.588 39.6971 130.862 39.6553 131.117 39.5598V38.1891H130.174V37.711H131.708L131.712 39.9075Z" fill="#0F0F0F"/>
<path d="M136.314 35.5156H136.915V37.7323H136.935C137.06 37.5554 137.184 37.3908 137.302 37.2402L138.717 35.5156H139.463L137.778 37.4653L139.594 40.1136H138.899L137.365 37.855L136.923 38.3595V40.1136H136.322L136.314 35.5156Z" fill="#0F0F0F"/>
<path d="M141.802 35.5156V37.4436H144.055V35.5156H144.663V40.1136H144.055V37.9574H141.802V40.1136H141.201V35.5156H141.802Z" fill="#0F0F0F"/>
<path d="M150.791 37.7686C150.791 39.3504 149.816 40.1902 148.628 40.1902C147.398 40.1902 146.535 39.2495 146.535 37.8617C146.535 36.4025 147.453 35.4463 148.697 35.4463C149.969 35.4416 150.791 36.4041 150.791 37.7686ZM147.175 37.8431C147.175 38.8272 147.714 39.7059 148.661 39.7059C149.607 39.7059 150.154 38.8381 150.154 37.795C150.154 36.8791 149.67 35.9322 148.669 35.9322C147.667 35.9322 147.177 36.8341 147.177 37.8431H147.175Z" fill="#0F0F0F"/>
<path d="M153.334 38.668L152.85 40.1147H152.221L153.802 35.5168H154.529L156.126 40.1147H155.483L154.985 38.668H153.334ZM154.86 38.2023L154.404 36.8782C154.302 36.5801 154.231 36.3054 154.162 36.0399H154.145C154.076 36.3131 154 36.5925 153.909 36.8735L153.453 38.2023H154.86ZM155.192 34.4767L154.315 35.2715H153.818L154.459 34.4736L155.192 34.4767Z" fill="#0F0F0F"/>
<path d="M157.92 40.1136V35.5156H158.577L160.069 37.8441C160.38 38.324 160.66 38.8234 160.905 39.339H160.92C160.865 38.718 160.85 38.1654 160.85 37.4483V35.5156H161.416V40.1136H160.81L159.33 37.7851C159.008 37.2914 158.718 36.7787 158.459 36.2499H158.439C158.473 36.8304 158.487 37.3831 158.487 38.1468V40.1136H157.92Z" fill="#0F0F0F"/>
<path d="M166.924 38.6668L166.439 40.1136H165.811L167.392 35.5156H168.118L169.709 40.1136H169.081L168.582 38.6668H166.924ZM168.45 38.2011L167.994 36.877C167.892 36.579 167.821 36.3042 167.752 36.0388H167.74C167.67 36.312 167.595 36.5914 167.504 36.8723L167.048 38.2011H168.45Z" fill="#0F0F0F"/>
<path d="M171.424 39.3902C171.749 39.5841 172.121 39.6881 172.501 39.6914C173.117 39.6914 173.476 39.3701 173.476 38.9059C173.476 38.4759 173.229 38.2307 172.598 37.9916C171.839 37.7262 171.369 37.3365 171.369 36.6892C171.369 35.9721 171.971 35.4474 172.875 35.4474C173.232 35.4361 173.586 35.5135 173.905 35.6725L173.748 36.1568C173.475 36.0129 173.171 35.9377 172.862 35.9379C172.234 35.9379 171.985 36.3136 171.985 36.6287C171.985 37.0587 172.268 37.2698 172.911 37.5151C173.697 37.8162 174.1 38.1919 174.1 38.8656C174.1 39.5765 173.567 40.1897 172.468 40.1897C172.053 40.1948 171.643 40.0937 171.279 39.8963L171.424 39.3902Z" fill="#0F0F0F"/>
<path d="M178.434 37.9574H176.628V39.6168H178.645V40.1151H176.027V35.5156H178.543V36.0124H176.628V37.4653H178.437L178.434 37.9574Z" fill="#0F0F0F"/>
<path d="M181.281 38.6668L180.797 40.1136H180.168L181.75 35.5156H182.474L184.065 40.1136H183.422L182.924 38.6668H181.281ZM182.808 38.2011L182.352 36.877C182.249 36.579 182.179 36.3042 182.11 36.0388H182.097C182.028 36.312 181.952 36.5914 181.861 36.8723L181.405 38.2011H182.808Z" fill="#0F0F0F"/>
<path d="M185.889 40.1136V35.5156H186.546L188.038 37.8441C188.349 38.324 188.628 38.8234 188.874 39.339H188.888C188.833 38.718 188.819 38.1654 188.819 37.4483V35.5156H189.385V40.1136H188.778L187.299 37.7851C186.977 37.2917 186.687 36.779 186.429 36.2499H186.407C186.442 36.8304 186.456 37.3831 186.456 38.1468V40.1136H185.889Z" fill="#0F0F0F"/>
</g>
</svg>
